<?xml version="1.0" encoding="UTF-8"?>
<svg xmlns="http://www.w3.org/2000/svg" xmlns:xlink="http://www.w3.org/1999/xlink" viewBox="0 0 100 100" width="100px" height="100px">
<g id="surface155824063">
<path style=" stroke:none;fill-rule:nonzero;fill:rgb(36.078432%,39.215687%,81.176472%);fill-opacity:1;" d="M 50 100 C 22.386719 100 0 77.613281 0 50 C 0 22.386719 22.386719 0 50 0 C 77.613281 0 100 22.386719 100 50 C 100 77.613281 77.613281 100 50 100 Z M 50 100 "/>
<path style=" stroke:none;fill-rule:nonzero;fill:rgb(100%,100%,100%);fill-opacity:1;" d="M 50 21.199219 C 34.105469 21.199219 21.199219 34.105469 21.199219 50 C 21.199219 65.894531 34.105469 78.800781 50 78.800781 C 65.894531 78.800781 78.800781 65.894531 78.800781 50 C 78.800781 34.105469 65.894531 21.199219 50 21.199219 Z M 50 22.800781 C 65.03125 22.800781 77.199219 34.96875 77.199219 50 C 77.199219 65.03125 65.03125 77.199219 50 77.199219 C 34.96875 77.199219 22.800781 65.03125 22.800781 50 C 22.800781 34.96875 34.96875 22.800781 50 22.800781 Z M 50 25.199219 C 36.308594 25.199219 25.199219 36.308594 25.199219 50 C 25.199219 63.691406 36.308594 74.800781 50 74.800781 C 63.691406 74.800781 74.800781 63.691406 74.800781 50 C 74.800781 42.722656 71.664062 36.171875 66.667969 31.636719 C 66.5625 31.535156 66.414062 31.5 66.273438 31.542969 C 66.132812 31.585938 66.027344 31.703125 66 31.84375 C 65.96875 31.988281 66.019531 32.136719 66.132812 32.230469 C 70.964844 36.621094 74 42.953125 74 50 C 74 63.261719 63.261719 74 50 74 C 36.738281 74 26 63.261719 26 50 C 26 36.738281 36.738281 26 50 26 C 52.90625 26 55.6875 26.515625 58.261719 27.460938 C 58.398438 27.511719 58.546875 27.484375 58.65625 27.390625 C 58.765625 27.300781 58.820312 27.15625 58.792969 27.015625 C 58.769531 26.875 58.671875 26.757812 58.539062 26.710938 C 55.875 25.734375 53 25.199219 50 25.199219 Z M 60.785156 27.710938 C 60.597656 27.71875 60.441406 27.847656 60.402344 28.027344 C 60.363281 28.210938 60.453125 28.394531 60.621094 28.472656 C 61.15625 28.738281 61.683594 29.023438 62.195312 29.328125 C 62.320312 29.402344 62.476562 29.40625 62.601562 29.335938 C 62.726562 29.265625 62.808594 29.132812 62.808594 28.988281 C 62.808594 28.84375 62.730469 28.707031 62.601562 28.636719 C 62.074219 28.324219 61.53125 28.03125 60.976562 27.757812 C 60.917969 27.726562 60.851562 27.710938 60.785156 27.710938 Z M 64.007812 29.609375 C 63.992188 29.609375 63.980469 29.609375 63.964844 29.609375 C 63.796875 29.625 63.652344 29.742188 63.609375 29.90625 C 63.566406 30.070312 63.628906 30.246094 63.769531 30.339844 C 64.035156 30.527344 64.296875 30.71875 64.554688 30.917969 C 64.667969 31.003906 64.820312 31.023438 64.953125 30.96875 C 65.085938 30.914062 65.179688 30.792969 65.199219 30.652344 C 65.214844 30.507812 65.15625 30.367188 65.042969 30.28125 C 64.777344 30.078125 64.503906 29.878906 64.230469 29.6875 C 64.164062 29.636719 64.085938 29.613281 64.007812 29.609375 Z M 38.929688 40.398438 C 38.113281 40.398438 37.21875 40.640625 36.417969 41.128906 C 32.929688 43.253906 30.683594 48.101562 31.132812 51.796875 C 31.277344 52.96875 31.761719 54.253906 32.683594 55.117188 C 33.304688 55.691406 34.425781 56.398438 35.75 56.398438 C 37.183594 56.398438 38.390625 55.847656 39.476562 55.164062 C 40.210938 54.691406 40.828125 54.121094 41.347656 53.539062 C 41.710938 54.308594 42.46875 54.828125 43.257812 54.828125 C 43.871094 54.828125 44.453125 54.519531 44.890625 53.945312 C 45.019531 54.476562 45.394531 54.828125 46.054688 54.828125 C 46.539062 54.828125 47.574219 54.347656 48.535156 53.628906 L 48.4375 54.140625 C 48.410156 54.25 48.402344 54.363281 48.410156 54.472656 C 48.4375 54.714844 48.605469 54.828125 48.828125 54.828125 C 49.289062 54.828125 49.964844 54.386719 50.101562 53.699219 L 50.3125 52.726562 C 50.582031 51.507812 52.363281 49.671875 52.871094 49.671875 C 52.9375 49.671875 52.984375 49.714844 52.996094 49.804688 C 53.03125 50.113281 52.429688 51.132812 52.167969 52.769531 C 52.121094 53.046875 52.109375 53.328125 52.140625 53.609375 C 52.226562 54.339844 52.660156 54.824219 53.453125 54.824219 C 54.140625 54.824219 55.605469 54.246094 56.648438 53.101562 C 56.730469 53.742188 56.867188 54.289062 57.070312 54.628906 C 57.15625 54.785156 57.355469 54.828125 57.53125 54.828125 C 57.753906 54.828125 58.058594 54.742188 58.390625 54.5625 C 59.183594 54.121094 60.222656 53.125 61.210938 51.6875 C 61.34375 51.710938 61.453125 51.710938 61.585938 51.710938 C 61.984375 51.710938 62.425781 51.570312 62.835938 51.3125 C 62.683594 51.8125 62.625 52.320312 62.683594 52.792969 C 62.824219 53.945312 63.8125 54.828125 64.828125 54.828125 C 65.421875 54.828125 66.003906 54.519531 66.441406 53.96875 C 66.574219 54.699219 67.042969 55.472656 68.179688 55.9375 C 68.25 55.980469 68.339844 55.980469 68.40625 55.980469 C 68.628906 55.980469 68.761719 55.824219 68.742188 55.648438 C 68.734375 55.582031 68.675781 55.472656 68.574219 55.382812 C 68.304688 55.140625 68.007812 54.71875 67.929688 54.078125 C 67.890625 53.769531 67.914062 53.390625 68.015625 52.949219 C 68.261719 51.910156 68.3125 51.621094 68.296875 51.488281 C 68.265625 51.222656 68.074219 51.113281 67.855469 51.113281 C 67.390625 51.113281 66.765625 51.578125 66.601562 52.21875 C 66.347656 53.191406 65.65625 53.859375 65.195312 53.859375 C 64.621094 53.859375 64.324219 53.238281 64.246094 52.59375 C 64.050781 51 65.066406 49.03125 66.542969 49.03125 C 66.984375 49.03125 67.445312 49.210938 67.5 49.652344 C 67.585938 50.339844 66.859375 50.183594 66.894531 50.472656 C 66.929688 50.757812 67.425781 50.847656 67.757812 50.847656 C 68.085938 50.847656 69.050781 50.625 68.914062 49.496094 C 68.804688 48.613281 67.871094 48.191406 66.792969 48.191406 C 65.523438 48.191406 64.441406 48.835938 63.703125 49.726562 C 63.605469 49.785156 63.503906 49.882812 63.394531 50.007812 C 63.152344 50.296875 62.710938 50.5625 62.136719 50.5625 C 62.070312 50.5625 61.917969 50.539062 61.917969 50.539062 C 62.289062 49.808594 62.554688 49.054688 62.554688 48.390625 C 62.554688 47.328125 61.894531 46.796875 61.167969 46.796875 C 60.242188 46.796875 59.296875 47.617188 59.296875 49.210938 C 59.296875 50.164062 59.667969 50.9375 60.332031 51.359375 C 59.582031 52.597656 58.546875 53.617188 58.390625 53.617188 C 58.304688 53.617188 58.28125 53.527344 58.261719 53.4375 C 58.152344 53.019531 58.039062 52.199219 58.039062 51.691406 C 58.039062 50.785156 58.214844 49.875 58.546875 48.902344 C 58.589844 48.792969 58.613281 48.679688 58.613281 48.59375 C 58.613281 48.328125 58.4375 48.195312 58.195312 48.195312 C 57.710938 48.195312 56.980469 48.746094 56.804688 49.320312 C 56.628906 49.875 56.5625 50.625 56.5625 51.554688 C 56.5625 51.726562 56.566406 51.898438 56.574219 52.066406 C 55.675781 53.25 54.5625 53.675781 54.21875 53.675781 C 53.785156 53.675781 53.699219 53.316406 53.75 53.082031 C 53.984375 51.964844 54.335938 50.667969 54.648438 49.804688 C 54.796875 49.386719 54.863281 49.007812 54.835938 48.789062 C 54.785156 48.390625 54.496094 48.191406 54.121094 48.191406 C 53.242188 48.191406 51.765625 49.121094 50.820312 50.382812 L 51.121094 49.015625 C 51.148438 48.882812 51.15625 48.769531 51.148438 48.683594 C 51.113281 48.417969 50.949219 48.304688 50.726562 48.304688 C 49.648438 48.304688 49.457031 48.855469 49.355469 49.386719 C 49.332031 49.515625 49.019531 51.140625 48.765625 52.453125 C 47.953125 53.179688 47.082031 53.652344 46.84375 53.652344 C 46.542969 53.652344 46.445312 53.414062 46.4375 53.242188 C 46.425781 53.042969 46.644531 52.085938 46.699219 51.796875 C 46.726562 51.667969 46.734375 51.554688 46.722656 51.46875 C 46.695312 51.222656 46.527344 51.113281 46.285156 51.113281 C 45.820312 51.113281 45.191406 51.554688 45.03125 52.21875 C 44.773438 53.195312 44.109375 53.859375 43.644531 53.859375 C 43.074219 53.859375 42.753906 53.238281 42.679688 52.617188 C 42.511719 51.246094 43.386719 49.03125 44.972656 49.03125 C 45.414062 49.03125 45.871094 49.1875 45.925781 49.628906 C 46.015625 50.335938 45.308594 50.160156 45.347656 50.46875 C 45.382812 50.757812 45.878906 50.847656 46.1875 50.847656 C 46.539062 50.847656 47.480469 50.625 47.34375 49.519531 C 47.238281 48.632812 46.324219 48.191406 45.222656 48.191406 C 42.675781 48.191406 40.964844 50.695312 41.125 52.691406 C 40.464844 53.457031 39.808594 53.925781 38.648438 54.519531 C 37.984375 54.851562 37.238281 55.050781 36.53125 55.050781 C 34.417969 55.050781 33.386719 53.105469 33.179688 51.421875 C 32.652344 47.105469 36.445312 41.175781 39.089844 41.175781 C 39.707031 41.175781 40.257812 41.710938 40.359375 42.546875 C 40.519531 43.847656 40.492188 44.769531 39.148438 45.894531 C 39 46.015625 38.957031 46.214844 39.03125 46.332031 C 39.148438 46.507812 39.507812 46.527344 40.238281 46.15625 C 41.667969 45.433594 42.1875 44.320312 42.027344 43.03125 C 41.851562 41.597656 40.601562 40.398438 38.929688 40.398438 Z M 60.640625 47.65625 C 60.882812 47.65625 61.1875 48.011719 61.1875 48.808594 C 61.1875 49.230469 61.101562 49.652344 60.945312 50.070312 C 60.550781 49.652344 60.242188 49.007812 60.242188 48.390625 C 60.242188 48.058594 60.351562 47.65625 60.640625 47.65625 Z M 60.640625 47.65625 "/>
</g>
</svg>
