<?xml version="1.0" encoding="UTF-8"?>
<svg xmlns="http://www.w3.org/2000/svg" xmlns:xlink="http://www.w3.org/1999/xlink" viewBox="0 0 100 100" width="100px" height="100px">
<g id="surface155992429">
<path style=" stroke:none;fill-rule:nonzero;fill:rgb(36.078432%,39.215687%,81.176472%);fill-opacity:1;" d="M 50 100 C 22.386719 100 0 77.613281 0 50 C 0 22.386719 22.386719 0 50 0 C 77.613281 0 100 22.386719 100 50 C 100 77.613281 77.613281 100 50 100 Z M 50 100 "/>
<path style=" stroke:none;fill-rule:evenodd;fill:rgb(100%,100%,100%);fill-opacity:1;" d="M 72.398438 74 L 50 80.398438 L 27.601562 74 L 22.800781 19.601562 L 77.199219 19.601562 C 75.601562 37.730469 74 55.867188 72.398438 74 Z M 73.707031 22.800781 L 26.292969 22.800781 L 30.59375 71.523438 L 50 77.074219 L 69.40625 71.523438 Z M 36.882812 54.800781 L 43.28125 54.800781 L 43.4375 58.800781 L 50 61.039062 L 56.5625 58.800781 L 57.039062 51.601562 L 42.960938 51.601562 L 42.636719 45.199219 L 57.363281 45.199219 L 57.835938 38.800781 L 35.761719 38.800781 L 35.28125 32.398438 L 64.5625 32.398438 L 63.761719 45.199219 L 62.636719 63.601562 L 50 67.761719 L 37.363281 63.601562 Z M 36.882812 54.800781 "/>
</g>
</svg>
