<?xml version="1.0" encoding="UTF-8"?>
<svg xmlns="http://www.w3.org/2000/svg" xmlns:xlink="http://www.w3.org/1999/xlink" viewBox="0 0 100 100" width="100px" height="100px">
<g id="surface155917242">
<path style=" stroke:none;fill-rule:nonzero;fill:rgb(36.078432%,39.215687%,81.176472%);fill-opacity:1;" d="M 50 100 C 22.386719 100 0 77.613281 0 50 C 0 22.386719 22.386719 0 50 0 C 77.613281 0 100 22.386719 100 50 C 100 77.613281 77.613281 100 50 100 Z M 50 100 "/>
<path style=" stroke:none;fill-rule:nonzero;fill:rgb(100%,100%,100%);fill-opacity:1;" d="M 50 16.398438 C 50.90625 16.398438 51.757812 16.75 52.394531 17.394531 L 82.605469 47.605469 C 83.929688 48.925781 83.929688 51.074219 82.605469 52.394531 L 52.394531 82.605469 C 51.757812 83.25 50.90625 83.601562 50 83.601562 C 49.09375 83.601562 48.242188 83.25 47.605469 82.605469 L 17.394531 52.394531 C 16.070312 51.074219 16.070312 48.925781 17.394531 47.605469 L 37.105469 27.894531 L 40.742188 31.53125 C 39.867188 34.78125 40.75 38.324219 43.210938 40.789062 C 43.800781 41.375 44.46875 41.882812 45.199219 42.300781 L 45.199219 57.707031 C 42.289062 59.386719 40.398438 62.519531 40.398438 66 C 40.398438 71.292969 44.707031 75.601562 50 75.601562 C 55.292969 75.601562 59.601562 71.292969 59.601562 66 C 59.601562 62.519531 57.710938 59.386719 54.800781 57.707031 L 54.800781 45.585938 L 56.742188 47.53125 C 55.867188 50.78125 56.75 54.324219 59.210938 56.789062 C 61.023438 58.601562 63.4375 59.601562 66 59.601562 C 68.5625 59.601562 70.976562 58.601562 72.789062 56.789062 C 76.53125 53.042969 76.53125 46.957031 72.789062 43.210938 C 70.980469 41.40625 68.585938 40.414062 66.03125 40.414062 C 65.1875 40.414062 64.34375 40.523438 63.53125 40.742188 L 59.257812 36.46875 C 60.132812 33.21875 59.25 29.675781 56.789062 27.210938 C 54.980469 25.40625 52.585938 24.414062 50.03125 24.414062 C 49.1875 24.414062 48.34375 24.523438 47.53125 24.742188 L 43.894531 21.105469 L 47.605469 17.394531 C 48.242188 16.75 49.09375 16.398438 50 16.398438 M 50 13.199219 C 48.3125 13.199219 46.625 13.84375 45.34375 15.132812 L 39.367188 21.105469 L 46.761719 28.5 C 47.769531 27.914062 48.898438 27.613281 50.03125 27.613281 C 51.65625 27.613281 53.28125 28.230469 54.523438 29.476562 C 56.632812 31.582031 56.9375 34.78125 55.492188 37.230469 L 62.761719 44.5 C 63.769531 43.914062 64.898438 43.613281 66.03125 43.613281 C 67.65625 43.613281 69.28125 44.230469 70.523438 45.476562 C 73.023438 47.976562 73.023438 52.023438 70.523438 54.523438 C 69.273438 55.773438 67.636719 56.398438 66 56.398438 C 64.363281 56.398438 62.726562 55.773438 61.476562 54.523438 C 59.367188 52.417969 59.0625 49.21875 60.507812 46.761719 L 53.238281 39.492188 C 52.71875 39.800781 52.167969 40.023438 51.601562 40.167969 L 51.601562 59.824219 C 54.355469 60.539062 56.398438 63.019531 56.398438 66 C 56.398438 69.539062 53.539062 72.398438 50 72.398438 C 46.46875 72.398438 43.601562 69.539062 43.601562 66 C 43.601562 63.019531 45.644531 60.539062 48.398438 59.824219 L 48.398438 40.167969 C 47.332031 39.894531 46.3125 39.363281 45.476562 38.523438 C 43.367188 36.417969 43.0625 33.21875 44.507812 30.769531 L 37.105469 23.367188 L 15.132812 45.34375 C 12.554688 47.914062 12.554688 52.085938 15.132812 54.65625 L 45.34375 84.867188 C 46.625 86.15625 48.3125 86.800781 50 86.800781 C 51.6875 86.800781 53.375 86.15625 54.65625 84.867188 L 84.867188 54.65625 C 87.445312 52.085938 87.445312 47.914062 84.867188 45.34375 L 54.65625 15.132812 C 53.375 13.84375 51.6875 13.199219 50 13.199219 Z M 50 13.199219 "/>
</g>
</svg>
