<?xml version="1.0" encoding="UTF-8"?>
<svg xmlns="http://www.w3.org/2000/svg" xmlns:xlink="http://www.w3.org/1999/xlink" viewBox="0 0 100 100" width="100px" height="100px">
<g id="surface156141885">
<path style=" stroke:none;fill-rule:nonzero;fill:rgb(36.078432%,39.215687%,81.176472%);fill-opacity:1;" d="M 50 100 C 22.386719 100 0 77.613281 0 50 C 0 22.386719 22.386719 0 50 0 C 77.613281 0 100 22.386719 100 50 C 100 77.613281 77.613281 100 50 100 Z M 50 100 "/>
<path style=" stroke:none;fill-rule:nonzero;fill:rgb(100%,100%,100%);fill-opacity:1;" d="M 20.699219 15.5 C 20.277344 15.5 19.875 15.675781 19.589844 15.988281 C 19.304688 16.300781 19.164062 16.714844 19.203125 17.132812 L 24.484375 76.273438 C 24.539062 76.890625 24.96875 77.410156 25.5625 77.582031 L 49.578125 84.441406 C 49.847656 84.519531 50.132812 84.519531 50.402344 84.441406 L 74.441406 77.582031 C 75.035156 77.410156 75.464844 76.890625 75.519531 76.273438 L 80.796875 17.132812 C 80.835938 16.714844 80.695312 16.300781 80.410156 15.988281 C 80.125 15.675781 79.722656 15.5 79.304688 15.5 Z M 22.335938 18.5 L 77.664062 18.5 L 72.625 74.980469 L 49.992188 81.441406 L 27.378906 74.980469 Z M 41 27.5 C 40.171875 27.5 39.5 28.171875 39.5 29 L 39.5 56.941406 L 30.902344 54.5625 C 30.449219 54.4375 29.964844 54.527344 29.59375 54.8125 C 29.21875 55.09375 29 55.539062 29 56.003906 L 29 63.421875 C 29 64.097656 29.449219 64.6875 30.097656 64.867188 L 46.597656 69.445312 C 47.050781 69.570312 47.535156 69.476562 47.90625 69.191406 C 48.28125 68.910156 48.5 68.46875 48.5 68 L 48.5 29 C 48.5 28.171875 47.828125 27.5 47 27.5 Z M 53 27.5 C 52.171875 27.5 51.5 28.171875 51.5 29 L 51.5 54.5 C 51.5 54.941406 51.695312 55.363281 52.035156 55.648438 C 52.371094 55.933594 52.820312 56.054688 53.253906 55.980469 L 61.878906 54.492188 L 61.699219 57.152344 L 52.601562 59.652344 C 51.953125 59.832031 51.5 60.421875 51.5 61.097656 L 51.5 68 C 51.5 68.46875 51.71875 68.910156 52.089844 69.195312 C 52.464844 69.476562 52.945312 69.570312 53.398438 69.445312 L 68.398438 65.320312 C 69.003906 65.15625 69.441406 64.628906 69.496094 64.003906 L 71.078125 45.628906 C 71.117188 45.171875 70.945312 44.726562 70.613281 44.410156 C 70.28125 44.097656 69.824219 43.949219 69.371094 44.015625 L 60.5 45.269531 L 60.5 36.5 L 70.480469 36.5 C 71.261719 36.5 71.910156 35.902344 71.976562 35.128906 L 72.496094 29.128906 C 72.53125 28.710938 72.390625 28.296875 72.105469 27.984375 C 71.820312 27.675781 71.421875 27.5 71 27.5 Z M 42.5 30.5 L 45.5 30.5 L 45.5 66.027344 L 32 62.285156 L 32 57.976562 L 40.597656 60.363281 C 41.050781 60.488281 41.535156 60.394531 41.90625 60.109375 C 42.28125 59.828125 42.5 59.386719 42.5 58.917969 Z M 54.5 30.5 L 69.363281 30.5 L 69.105469 33.5 L 59 33.5 C 58.171875 33.5 57.5 34.171875 57.5 35 L 57.5 47 C 57.5 47.433594 57.6875 47.847656 58.015625 48.132812 C 58.34375 48.417969 58.78125 48.546875 59.210938 48.484375 L 67.925781 47.25 L 66.59375 62.707031 L 54.5 66.03125 L 54.5 62.242188 L 63.523438 59.761719 C 64.136719 59.59375 64.578125 59.054688 64.621094 58.417969 L 64.996094 52.792969 C 65.027344 52.332031 64.847656 51.886719 64.503906 51.578125 C 64.164062 51.269531 63.699219 51.132812 63.246094 51.210938 L 54.5 52.71875 Z M 54.5 30.5 "/>
</g>
</svg>
