<?xml version="1.0" encoding="UTF-8"?>
<svg xmlns="http://www.w3.org/2000/svg" xmlns:xlink="http://www.w3.org/1999/xlink" viewBox="0 0 100 100" width="100px" height="100px">
<g id="surface155873577">
<path style=" stroke:none;fill-rule:nonzero;fill:rgb(36.078432%,39.215687%,81.176472%);fill-opacity:1;" d="M 50 100 C 22.386719 100 0 77.613281 0 50 C 0 22.386719 22.386719 0 50 0 C 77.613281 0 100 22.386719 100 50 C 100 77.613281 77.613281 100 50 100 Z M 50 100 "/>
<path style=" stroke:none;fill-rule:nonzero;fill:rgb(100%,100%,100%);fill-opacity:1;" d="M 22.5 22.5 L 22.5 77.5 L 77.5 77.5 L 77.5 22.5 Z M 27.5 27.5 L 72.5 27.5 L 72.5 72.5 L 27.5 72.5 Z M 37.5 35 L 37.5 64.976562 C 52.324219 64.976562 55.292969 65.175781 58.066406 64.351562 C 59.691406 63.851562 64.140625 62.25 64.140625 56.625 C 64.140625 54.125 63.390625 49.898438 58.492188 48.847656 L 58.492188 48.773438 L 57.570312 48.773438 C 60.070312 47.648438 61.640625 45.527344 61.640625 42.402344 C 61.640625 41.601562 61.867188 35 53.117188 35 Z M 42.5 40 L 52.5 40 C 56.273438 40 56.640625 42.132812 56.640625 43.726562 C 56.640625 47.609375 52.574219 47.5 52.5 47.5 L 42.5 47.5 Z M 42.5 52.5 L 54.398438 52.5 C 59.050781 52.5 59.140625 55.441406 59.140625 56.203125 C 59.140625 60.101562 55.113281 60 54.625 60 L 42.5 60 Z M 42.5 52.5 "/>
</g>
</svg>
