<?xml version="1.0" encoding="UTF-8"?>
<svg xmlns="http://www.w3.org/2000/svg" xmlns:xlink="http://www.w3.org/1999/xlink" viewBox="0 0 100 100" width="100px" height="100px">
<g id="surface155801509">
<path style=" stroke:none;fill-rule:nonzero;fill:rgb(36.078432%,39.215687%,81.176472%);fill-opacity:1;" d="M 50 100 C 22.386719 100 0 77.613281 0 50 C 0 22.386719 22.386719 0 50 0 C 77.613281 0 100 22.386719 100 50 C 100 77.613281 77.613281 100 50 100 Z M 50 100 "/>
<path style=" stroke:none;fill-rule:nonzero;fill:rgb(100%,100%,100%);fill-opacity:1;" d="M 41.25 12.1875 C 33.667969 12.1875 27.5 18.355469 27.5 25.9375 C 27.5 30.082031 29.351562 33.796875 32.261719 36.320312 C 27.945312 38.640625 25 43.203125 25 48.4375 C 25 53.089844 27.328125 57.199219 30.875 59.6875 C 27.328125 62.175781 25 66.285156 25 70.9375 C 25 78.519531 31.167969 84.6875 38.75 84.6875 C 46.332031 84.6875 52.5 78.519531 52.5 70.9375 L 52.5 39.6875 L 61.25 39.6875 C 68.832031 39.6875 75 33.519531 75 25.9375 C 75 18.355469 68.832031 12.1875 61.25 12.1875 Z M 41.25 17.1875 L 61.25 17.1875 C 66.074219 17.1875 70 21.113281 70 25.9375 C 70 30.761719 66.074219 34.6875 61.25 34.6875 L 41.25 34.6875 C 36.425781 34.6875 32.5 30.761719 32.5 25.9375 C 32.5 21.113281 36.425781 17.1875 41.25 17.1875 Z M 38.75 39.6875 L 47.5 39.6875 L 47.5 57.1875 L 38.75 57.1875 C 33.925781 57.1875 30 53.261719 30 48.4375 C 30 43.613281 33.925781 39.6875 38.75 39.6875 Z M 62.5 39.6875 C 56.976562 39.6875 52.5 44.164062 52.5 49.6875 C 52.5 55.210938 56.976562 59.6875 62.5 59.6875 C 68.023438 59.6875 72.5 55.210938 72.5 49.6875 C 72.5 44.164062 68.023438 39.6875 62.5 39.6875 Z M 38.75 62.1875 L 47.5 62.1875 L 47.5 70.9375 C 47.5 75.761719 43.574219 79.6875 38.75 79.6875 C 33.925781 79.6875 30 75.761719 30 70.9375 C 30 66.113281 33.925781 62.1875 38.75 62.1875 Z M 38.75 62.1875 "/>
</g>
</svg>
