<?xml version="1.0" encoding="UTF-8"?>
<svg xmlns="http://www.w3.org/2000/svg" xmlns:xlink="http://www.w3.org/1999/xlink" viewBox="0 0 100 100" width="100px" height="100px">
<g id="surface155600353">
<path style=" stroke:none;fill-rule:nonzero;fill:rgb(36.078432%,39.215687%,81.176472%);fill-opacity:1;" d="M 50 100 C 22.386719 100 0 77.613281 0 50 C 0 22.386719 22.386719 0 50 0 C 77.613281 0 100 22.386719 100 50 C 100 77.613281 77.613281 100 50 100 Z M 50 100 "/>
<path style=" stroke:none;fill-rule:nonzero;fill:rgb(100%,100%,100%);fill-opacity:1;" d="M 24.167969 18.75 C 23.46875 18.75 22.804688 19.039062 22.328125 19.554688 C 21.855469 20.066406 21.617188 20.753906 21.671875 21.449219 L 25.945312 75.382812 C 26.019531 76.363281 26.664062 77.210938 27.589844 77.542969 L 49.15625 85.269531 C 49.703125 85.464844 50.296875 85.464844 50.84375 85.269531 L 72.410156 77.542969 C 73.335938 77.210938 73.980469 76.363281 74.054688 75.382812 L 78.328125 21.449219 C 78.382812 20.753906 78.144531 20.066406 77.671875 19.554688 C 77.195312 19.039062 76.53125 18.75 75.832031 18.75 Z M 26.875 23.75 L 73.125 23.75 L 69.199219 73.378906 L 50 80.261719 L 30.800781 73.378906 Z M 34.96875 32.082031 L 36.46875 52.082031 L 58.816406 52.082031 L 58.035156 62.71875 L 50.015625 65.28125 L 42.265625 62.734375 L 41.847656 57.082031 L 36.832031 57.082031 L 37.53125 66.433594 L 49.984375 70.550781 L 62.765625 66.449219 L 64.199219 47.082031 L 41.101562 47.082031 L 40.367188 37.082031 L 64.601562 37.082031 L 64.984375 32.082031 Z M 34.96875 32.082031 "/>
</g>
</svg>
