<?xml version="1.0" encoding="UTF-8"?>
<svg xmlns="http://www.w3.org/2000/svg" xmlns:xlink="http://www.w3.org/1999/xlink" viewBox="0 0 100 100" width="100px" height="100px">
<g id="surface155915044">
<path style=" stroke:none;fill-rule:nonzero;fill:rgb(36.078432%,39.215687%,81.176472%);fill-opacity:1;" d="M 50 100 C 22.386719 100 0 77.613281 0 50 C 0 22.386719 22.386719 0 50 0 C 77.613281 0 100 22.386719 100 50 C 100 77.613281 77.613281 100 50 100 Z M 50 100 "/>
<path style=" stroke:none;fill-rule:nonzero;fill:rgb(100%,100%,100%);fill-opacity:1;" d="M 57.789062 14.8125 C 57.617188 14.835938 57.449219 14.886719 57.289062 14.960938 C 55.914062 15.644531 54.351562 17.667969 54.050781 18.070312 C 54.03125 18.09375 54.011719 18.117188 54 18.144531 C 52.457031 20.457031 51.632812 23.164062 51.601562 25.980469 C 51.582031 28.09375 51.992188 30.1875 52.832031 32.207031 C 54.78125 36.886719 58.832031 40.761719 63.648438 42.574219 C 63.8125 42.632812 63.96875 42.6875 64.25 42.789062 C 64.273438 42.800781 64.511719 42.875 64.550781 42.882812 L 64.726562 42.945312 C 64.976562 43.023438 65.230469 43.105469 65.480469 43.15625 C 66.75 43.414062 67.988281 43.554688 69.148438 43.59375 C 69.351562 43.59375 69.550781 43.601562 69.75 43.601562 C 78.519531 43.601562 81.917969 37.414062 83.050781 35.351562 C 83.164062 35.148438 83.242188 34.988281 83.320312 34.886719 C 83.320312 34.882812 83.320312 34.882812 83.324219 34.875 C 83.820312 34.144531 83.632812 33.148438 82.898438 32.648438 C 82.175781 32.15625 81.179688 32.34375 80.679688 33.074219 L 80.675781 33.074219 C 78.335938 36.519531 74.335938 37.5625 68.792969 36.1875 C 68.382812 36.085938 67.929688 35.929688 67.53125 35.78125 C 67.007812 35.59375 66.480469 35.375 65.992188 35.136719 C 65.023438 34.65625 64.113281 34.082031 63.289062 33.445312 C 58.414062 29.664062 56.507812 21.792969 59.355469 17.25 C 59.738281 16.644531 59.667969 15.855469 59.1875 15.324219 C 58.824219 14.925781 58.300781 14.742188 57.789062 14.8125 Z M 43.613281 18 C 43.25 17.992188 42.882812 18.113281 42.582031 18.363281 C 40.164062 20.332031 37.6875 23.554688 37.582031 23.6875 C 37.570312 23.710938 37.554688 23.730469 37.539062 23.757812 C 33.164062 30.125 32.832031 39.1875 36.699219 46.84375 C 37.304688 48.054688 37.992188 49.210938 38.726562 50.273438 L 38.945312 50.585938 C 39.5625 51.492188 40.257812 52.519531 41.144531 53.320312 C 41.449219 53.667969 41.78125 54.007812 42.105469 54.332031 L 42.261719 54.492188 L 42.394531 54.625 C 42.726562 54.945312 43.0625 55.269531 43.414062 55.582031 L 43.417969 55.582031 C 43.445312 55.617188 43.480469 55.644531 43.511719 55.675781 C 43.90625 56.023438 44.304688 56.355469 44.835938 56.773438 L 44.980469 56.882812 C 45.394531 57.210938 45.8125 57.523438 46.242188 57.832031 C 46.289062 57.863281 46.332031 57.894531 46.375 57.925781 C 46.523438 58.023438 46.675781 58.117188 46.824219 58.226562 L 46.976562 58.324219 L 47.148438 58.4375 C 47.46875 58.648438 47.78125 58.84375 48.226562 59.101562 C 48.511719 59.273438 48.820312 59.449219 49.019531 59.550781 C 49.105469 59.601562 49.199219 59.648438 49.417969 59.769531 L 49.90625 60.023438 C 49.929688 60.039062 50.042969 60.085938 50.070312 60.101562 C 50.386719 60.261719 50.71875 60.417969 51.050781 60.570312 L 51.554688 60.792969 C 51.886719 60.9375 52.226562 61.074219 52.636719 61.230469 L 52.824219 61.300781 C 52.835938 61.3125 52.992188 61.367188 53.007812 61.375 C 53.304688 61.480469 53.613281 61.585938 53.917969 61.6875 L 54.617188 61.917969 C 54.96875 62.039062 55.375 62.175781 55.820312 62.25 C 58 62.613281 60.117188 62.800781 62.125 62.800781 C 62.363281 62.800781 62.601562 62.792969 62.832031 62.792969 C 80.492188 62.40625 85.085938 47.398438 85.132812 47.25 C 85.351562 46.492188 84.992188 45.6875 84.28125 45.351562 C 83.570312 45.011719 82.71875 45.25 82.273438 45.898438 C 77.800781 52.4375 69.335938 55.199219 60.71875 52.925781 C 60.320312 52.824219 59.929688 52.710938 59.449219 52.554688 C 59.367188 52.53125 59.300781 52.507812 59.167969 52.457031 C 58.886719 52.367188 58.613281 52.273438 58.300781 52.15625 L 57.855469 51.988281 C 57.601562 51.886719 57.34375 51.789062 57.03125 51.648438 L 56.824219 51.554688 C 56.445312 51.394531 56.074219 51.210938 55.742188 51.050781 L 54.832031 50.574219 C 54.625 50.476562 54.445312 50.363281 54.164062 50.195312 L 54.007812 50.105469 L 53.851562 50.011719 C 53.617188 49.875 53.386719 49.730469 53.175781 49.582031 L 53.023438 49.488281 C 53.011719 49.480469 52.886719 49.394531 52.875 49.382812 C 52.6875 49.261719 52.507812 49.144531 52.332031 49.03125 C 51.945312 48.757812 51.5625 48.46875 51.117188 48.117188 L 50.945312 47.976562 C 46.820312 44.679688 43.769531 40.28125 42.335938 35.5625 C 41.007812 31.230469 41.992188 25.5625 44.980469 20.398438 C 45.367188 19.730469 45.226562 18.882812 44.632812 18.382812 C 44.335938 18.132812 43.976562 18 43.613281 18 Z M 26.007812 22.800781 C 25.625 22.800781 25.238281 22.9375 24.929688 23.210938 C 21.875 25.957031 19.585938 29.511719 19.335938 29.917969 C 12.800781 39.4375 14.0625 54.230469 18.550781 63.273438 C 18.636719 63.460938 18.730469 63.644531 18.824219 63.824219 L 18.886719 63.925781 C 18.96875 64.105469 19.0625 64.292969 19.09375 64.332031 C 19.144531 64.449219 19.21875 64.582031 19.25 64.617188 C 19.324219 64.773438 19.398438 64.914062 19.539062 65.148438 L 20.050781 66.03125 C 20.125 66.148438 20.199219 66.273438 20.226562 66.320312 C 20.324219 66.480469 20.429688 66.648438 20.539062 66.820312 L 20.789062 67.21875 C 20.863281 67.335938 20.9375 67.445312 20.988281 67.507812 C 21.238281 67.894531 21.488281 68.28125 21.761719 68.648438 C 21.773438 68.667969 21.789062 68.679688 21.800781 68.695312 L 21.898438 68.832031 C 22.125 69.15625 22.355469 69.46875 22.5625 69.726562 L 23.476562 70.882812 C 23.488281 70.894531 23.585938 71.011719 23.59375 71.023438 L 23.726562 71.175781 C 24 71.511719 24.292969 71.851562 24.585938 72.175781 C 24.632812 72.226562 24.675781 72.269531 24.71875 72.320312 C 25 72.625 25.289062 72.929688 25.585938 73.25 L 25.875 73.523438 C 26.113281 73.773438 26.351562 74.019531 26.601562 74.25 C 26.601562 74.257812 26.71875 74.367188 26.71875 74.367188 L 26.96875 74.601562 C 27.269531 74.886719 27.582031 75.175781 27.820312 75.375 C 27.832031 75.394531 28.054688 75.585938 28.074219 75.601562 C 28.367188 75.863281 28.664062 76.113281 28.960938 76.355469 L 30.492188 77.570312 C 30.75 77.757812 31.011719 77.945312 31.3125 78.164062 C 31.414062 78.238281 31.519531 78.3125 31.625 78.382812 C 31.667969 78.417969 31.71875 78.457031 31.75 78.476562 L 32.898438 79.242188 C 33.320312 79.519531 33.738281 79.773438 34.25 80.082031 L 34.523438 80.238281 C 34.84375 80.425781 35.167969 80.613281 35.476562 80.773438 C 35.65625 80.875 35.835938 80.960938 35.992188 81.042969 C 36.210938 81.164062 36.449219 81.292969 36.8125 81.46875 C 36.84375 81.488281 37.101562 81.613281 37.132812 81.625 C 37.492188 81.804688 37.863281 81.976562 38.324219 82.179688 C 38.324219 82.1875 38.476562 82.257812 38.476562 82.257812 C 38.898438 82.4375 39.3125 82.613281 39.855469 82.832031 C 39.945312 82.867188 40.03125 82.898438 40.050781 82.90625 C 40.4375 83.054688 40.84375 83.207031 41.175781 83.324219 C 41.207031 83.335938 41.375 83.40625 41.40625 83.417969 C 41.851562 83.570312 42.289062 83.710938 42.851562 83.886719 C 42.945312 83.917969 43.042969 83.949219 43.054688 83.949219 L 43.375 84.050781 C 43.761719 84.167969 44.148438 84.292969 44.570312 84.375 C 47.542969 84.917969 50.449219 85.199219 53.199219 85.199219 L 53.207031 85.199219 C 76.125 85.199219 83.425781 66.757812 83.5 66.570312 C 83.78125 65.824219 83.476562 64.988281 82.773438 64.601562 C 82.085938 64.21875 81.210938 64.398438 80.726562 65.03125 C 74.84375 72.773438 63.75 75.648438 51.050781 72.730469 C 50.742188 72.65625 50.429688 72.570312 50.125 72.476562 L 49.523438 72.292969 C 49.117188 72.167969 48.710938 72.03125 48.320312 71.894531 C 48.3125 71.894531 48.132812 71.824219 48.132812 71.824219 C 47.78125 71.707031 47.429688 71.570312 47.125 71.449219 L 46.773438 71.3125 C 46.386719 71.15625 46 70.992188 45.625 70.824219 L 45.40625 70.730469 C 45.070312 70.574219 44.742188 70.425781 44.417969 70.261719 C 44.394531 70.25 44.136719 70.125 44.113281 70.117188 C 43.886719 70.007812 43.664062 69.886719 43.375 69.730469 L 42.070312 69.03125 C 41.9375 68.945312 41.800781 68.863281 41.667969 68.792969 C 41.273438 68.550781 40.867188 68.304688 40.46875 68.050781 C 40.375 67.992188 40.292969 67.929688 40.136719 67.824219 C 39.863281 67.648438 39.59375 67.46875 39.199219 67.195312 L 39.042969 67.082031 C 38.773438 66.894531 38.511719 66.695312 38.292969 66.53125 C 38.15625 66.429688 38.019531 66.320312 37.792969 66.148438 C 37.59375 65.992188 37.394531 65.84375 37.207031 65.695312 L 36.855469 65.40625 C 36.5625 65.167969 36.289062 64.917969 36 64.675781 C 35.960938 64.636719 35.929688 64.613281 35.886719 64.582031 C 35.570312 64.289062 35.242188 63.992188 34.855469 63.625 L 33.726562 62.5 C 33.449219 62.21875 33.175781 61.929688 32.863281 61.585938 C 32.574219 61.269531 32.300781 60.949219 31.929688 60.511719 L 31.257812 59.6875 C 31.175781 59.570312 31.085938 59.449219 30.980469 59.324219 C 30.75 59.011719 30.519531 58.707031 30.289062 58.382812 C 24.0625 49.804688 22.4375 31.90625 27.289062 25.351562 C 27.773438 24.695312 27.6875 23.769531 27.074219 23.210938 C 26.773438 22.9375 26.386719 22.800781 26.007812 22.800781 Z M 26.007812 22.800781 "/>
</g>
</svg>
