<?xml version="1.0" encoding="UTF-8"?>
<svg xmlns="http://www.w3.org/2000/svg" xmlns:xlink="http://www.w3.org/1999/xlink" viewBox="0 0 100 100" width="100px" height="100px">
<g id="surface30307788">
<path style=" stroke:none;fill-rule:nonzero;fill:rgb(36.078432%,39.215687%,81.176472%);fill-opacity:1;" d="M 50 100 C 22.386719 100 0 77.613281 0 50 C 0 22.386719 22.386719 0 50 0 C 77.613281 0 100 22.386719 100 50 C 100 77.613281 77.613281 100 50 100 Z M 50 100 "/>
<path style=" stroke:none;fill-rule:nonzero;fill:rgb(100%,100%,100%);fill-opacity:1;" d="M 76.4375 54.109375 C 73.875 54.121094 71.65625 54.738281 69.796875 55.652344 C 69.113281 54.296875 68.425781 53.101562 68.308594 52.210938 C 68.175781 51.175781 68.019531 50.558594 68.179688 49.320312 C 68.34375 48.085938 69.058594 46.335938 69.046875 46.203125 C 69.039062 46.074219 68.886719 45.445312 67.410156 45.433594 C 65.933594 45.421875 64.667969 45.71875 64.519531 46.109375 C 64.367188 46.496094 64.085938 47.375 63.910156 48.292969 C 63.648438 49.632812 60.957031 54.414062 59.429688 56.914062 C 58.929688 55.9375 58.503906 55.078125 58.414062 54.398438 C 58.28125 53.359375 58.125 52.742188 58.285156 51.503906 C 58.449219 50.269531 59.164062 48.519531 59.152344 48.390625 C 59.144531 48.257812 58.992188 47.628906 57.515625 47.617188 C 56.035156 47.609375 54.773438 47.902344 54.625 48.292969 C 54.472656 48.683594 54.316406 49.59375 54.011719 50.476562 C 53.710938 51.359375 50.132812 59.332031 49.195312 61.398438 C 48.71875 62.453125 48.300781 63.296875 48.007812 63.875 C 48.007812 63.875 48.007812 63.871094 48.007812 63.871094 C 48.007812 63.871094 47.988281 63.910156 47.957031 63.976562 C 47.707031 64.46875 47.558594 64.742188 47.558594 64.742188 C 47.558594 64.742188 47.558594 64.746094 47.5625 64.75 C 47.363281 65.113281 47.148438 65.449219 47.042969 65.449219 C 46.96875 65.449219 46.824219 64.484375 47.074219 63.167969 C 47.609375 60.402344 48.886719 56.085938 48.875 55.941406 C 48.871094 55.863281 49.113281 55.113281 48.039062 54.71875 C 46.996094 54.335938 46.625 54.972656 46.527344 54.976562 C 46.4375 54.976562 46.367188 55.199219 46.367188 55.199219 C 46.367188 55.199219 47.53125 50.347656 44.152344 50.347656 C 42.039062 50.347656 39.113281 52.660156 37.667969 54.753906 C 36.761719 55.25 34.8125 56.3125 32.746094 57.445312 C 31.953125 57.882812 31.144531 58.328125 30.375 58.753906 C 30.324219 58.695312 30.273438 58.636719 30.21875 58.578125 C 26.121094 54.207031 18.546875 51.117188 18.871094 45.242188 C 18.988281 43.105469 19.730469 37.480469 33.421875 30.65625 C 44.636719 25.066406 53.617188 26.605469 55.167969 30.015625 C 57.386719 34.882812 50.371094 43.9375 38.722656 45.242188 C 34.285156 45.738281 31.949219 44.019531 31.367188 43.378906 C 30.753906 42.703125 30.664062 42.671875 30.433594 42.800781 C 30.0625 43.007812 30.296875 43.601562 30.433594 43.957031 C 30.78125 44.863281 32.210938 46.46875 34.644531 47.265625 C 36.785156 47.96875 41.992188 48.351562 48.296875 45.914062 C 55.355469 43.183594 60.863281 35.589844 59.246094 29.242188 C 57.601562 22.789062 46.894531 20.664062 36.765625 24.265625 C 30.734375 26.40625 24.207031 29.769531 19.515625 34.15625 C 13.933594 39.378906 13.046875 43.921875 13.410156 45.816406 C 14.714844 52.5625 24.011719 56.953125 27.734375 60.210938 C 27.550781 60.3125 27.378906 60.40625 27.21875 60.492188 C 25.355469 61.417969 18.269531 65.125 16.496094 69.042969 C 14.484375 73.488281 16.816406 76.675781 18.359375 77.105469 C 23.140625 78.4375 28.046875 76.042969 30.683594 72.109375 C 33.320312 68.179688 32.996094 63.058594 31.785156 60.722656 C 31.773438 60.695312 31.753906 60.664062 31.738281 60.636719 C 32.222656 60.351562 32.714844 60.0625 33.199219 59.777344 C 34.152344 59.21875 35.082031 58.699219 35.890625 58.257812 C 35.4375 59.496094 35.109375 60.984375 34.933594 63.132812 C 34.734375 65.65625 35.765625 68.917969 37.121094 70.199219 C 37.714844 70.765625 38.433594 70.777344 38.886719 70.777344 C 40.460938 70.777344 41.179688 69.46875 41.96875 67.917969 C 42.941406 66.019531 43.800781 63.804688 43.800781 63.804688 C 43.800781 63.804688 42.722656 69.78125 45.664062 69.78125 C 46.738281 69.78125 47.816406 68.390625 48.296875 67.683594 C 48.300781 67.6875 48.300781 67.695312 48.300781 67.695312 C 48.300781 67.695312 48.328125 67.648438 48.382812 67.554688 C 48.492188 67.382812 48.554688 67.277344 48.554688 67.277344 C 48.554688 67.277344 48.558594 67.265625 48.5625 67.246094 C 48.992188 66.496094 49.949219 64.789062 51.382812 61.976562 C 53.234375 58.339844 55.011719 53.785156 55.011719 53.785156 C 55.011719 53.785156 55.175781 54.898438 55.71875 56.738281 C 56.035156 57.824219 56.714844 59.019531 57.25 60.167969 C 56.820312 60.765625 56.554688 61.105469 56.554688 61.105469 C 56.554688 61.105469 56.558594 61.113281 56.5625 61.125 C 56.21875 61.582031 55.832031 62.070312 55.429688 62.554688 C 53.96875 64.292969 52.226562 66.28125 51.992188 66.859375 C 51.71875 67.535156 51.78125 68.03125 52.3125 68.429688 C 52.699219 68.722656 53.390625 68.769531 54.113281 68.71875 C 55.425781 68.632812 56.351562 68.304688 56.808594 68.105469 C 57.519531 67.855469 58.347656 67.460938 59.125 66.890625 C 60.558594 65.835938 61.425781 64.324219 61.34375 62.328125 C 61.296875 61.226562 60.945312 60.136719 60.5 59.105469 C 60.632812 58.917969 60.761719 58.730469 60.890625 58.535156 C 63.152344 55.230469 64.90625 51.597656 64.90625 51.597656 C 64.90625 51.597656 65.074219 52.710938 65.613281 54.550781 C 65.886719 55.484375 66.429688 56.5 66.914062 57.5 C 64.789062 59.226562 63.46875 61.234375 63.011719 62.550781 C 62.164062 64.984375 62.828125 66.089844 64.070312 66.339844 C 64.632812 66.453125 65.429688 66.195312 66.027344 65.941406 C 66.773438 65.695312 67.667969 65.285156 68.503906 64.671875 C 69.9375 63.617188 71.316406 62.140625 71.234375 60.140625 C 71.195312 59.230469 70.949219 58.328125 70.617188 57.460938 C 72.417969 56.710938 74.75 56.292969 77.722656 56.640625 C 84.101562 57.382812 85.351562 61.363281 85.113281 63.03125 C 84.875 64.699219 83.535156 65.613281 83.089844 65.890625 C 82.640625 66.167969 82.503906 66.261719 82.542969 66.46875 C 82.597656 66.765625 82.804688 66.753906 83.1875 66.691406 C 83.710938 66.601562 86.535156 65.335938 86.65625 62.257812 C 86.808594 58.363281 83.066406 54.074219 76.4375 54.109375 Z M 27.289062 70.679688 C 25.179688 72.980469 22.226562 73.851562 20.960938 73.121094 C 19.59375 72.328125 20.136719 68.933594 22.726562 66.488281 C 24.308594 65 26.347656 63.628906 27.699219 62.78125 C 28.007812 62.597656 28.460938 62.324219 29.007812 61.992188 C 29.101562 61.941406 29.152344 61.914062 29.152344 61.914062 L 29.148438 61.910156 C 29.253906 61.847656 29.367188 61.78125 29.476562 61.714844 C 30.421875 65.195312 29.507812 68.261719 27.289062 70.679688 Z M 42.675781 60.21875 C 41.941406 62.011719 40.398438 66.597656 39.464844 66.351562 C 38.65625 66.140625 38.167969 62.652344 39.300781 59.222656 C 39.871094 57.492188 41.089844 55.429688 41.808594 54.628906 C 42.960938 53.339844 44.230469 52.917969 44.539062 53.441406 C 44.933594 54.105469 43.136719 59.09375 42.675781 60.21875 Z M 55.390625 66.28125 C 55.078125 66.445312 54.789062 66.546875 54.660156 66.46875 C 54.558594 66.410156 54.789062 66.195312 54.789062 66.195312 C 54.789062 66.195312 56.378906 64.484375 57.003906 63.707031 C 57.367188 63.253906 57.792969 62.714844 58.25 62.113281 C 58.253906 62.175781 58.257812 62.234375 58.257812 62.292969 C 58.25 64.34375 56.273438 65.726562 55.390625 66.28125 Z M 65.183594 64.050781 C 64.949219 63.882812 64.988281 63.347656 65.753906 61.683594 C 66.054688 61.027344 66.738281 59.925781 67.929688 58.875 C 68.066406 59.304688 68.152344 59.722656 68.148438 60.109375 C 68.132812 62.6875 66.292969 63.652344 65.183594 64.050781 Z M 65.183594 64.050781 "/>
</g>
</svg>
